<?xml version="1.0" encoding="utf-8"?>
<!-- Generator: Adobe Illustrator 16.0.0, SVG Export Plug-In . SVG Version: 6.00 Build 0)  -->
<!DOCTYPE svg PUBLIC "-//W3C//DTD SVG 1.1//EN" "http://www.w3.org/Graphics/SVG/1.1/DTD/svg11.dtd">
<svg version="1.1" id="Calque_1" xmlns="http://www.w3.org/2000/svg" xmlns:xlink="http://www.w3.org/1999/xlink" x="0px" y="0px"
	 width="45px" height="45px" viewBox="0 0 45 45" enable-background="new 0 0 45 45" xml:space="preserve">
<g>
	<path fill="#252525" d="M45,39c0,3.313-2.687,6-6,6H6c-3.313,0-6-2.687-6-6V6c0-3.313,2.687-6,6-6h33c3.313,0,6,2.687,6,6V39z"/>
</g>
<g>
	<g>
		<path id="f_1_" fill="#FFFFFF" d="M23.598,35.666V24.263h3.756l0.564-4.446h-4.32v-2.835c0-1.289,0.352-2.165,2.161-2.165
			l2.308-0.001v-3.974c-0.397-0.054-1.769-0.176-3.361-0.176c-3.33,0-5.61,2.07-5.61,5.876v3.275h-3.763v4.446h3.763v11.403H23.598z
			"/>
	</g>
</g>
</svg>
