<?xml version="1.0" encoding="utf-8"?>
<!-- Generator: Adobe Illustrator 16.0.0, SVG Export Plug-In . SVG Version: 6.00 Build 0)  -->
<!DOCTYPE svg PUBLIC "-//W3C//DTD SVG 1.1//EN" "http://www.w3.org/Graphics/SVG/1.1/DTD/svg11.dtd">
<svg version="1.1" id="Calque_1" xmlns="http://www.w3.org/2000/svg" xmlns:xlink="http://www.w3.org/1999/xlink" x="0px" y="0px"
	 width="45px" height="45px" viewBox="0 0 45 45" enable-background="new 0 0 45 45" xml:space="preserve">
<g>
	<path fill="#252525" d="M45,39c0,3.313-2.687,6-6,6H6c-3.313,0-6-2.687-6-6V6c0-3.313,2.687-6,6-6h33c3.313,0,6,2.687,6,6V39z"/>
</g>
<g>
	<g>
		<g>
			<path fill="#FFFFFF" d="M27.688,10.5h-9.375c-4.314,0-7.813,3.498-7.813,7.813v9.375c0,4.314,3.498,7.813,7.813,7.813h9.375
				c4.314,0,7.813-3.498,7.813-7.813v-9.375C35.5,13.998,32.002,10.5,27.688,10.5z M33.156,27.688c0,3.016-2.453,5.469-5.469,5.469
				h-9.375c-3.016,0-5.469-2.453-5.469-5.469v-9.375c0-3.016,2.453-5.469,5.469-5.469h9.375c3.016,0,5.469,2.453,5.469,5.469V27.688
				z"/>
		</g>
	</g>
	<g>
		<g>
			<path fill="#FFFFFF" d="M23,16.75c-3.45,0-6.25,2.8-6.25,6.25c0,3.449,2.8,6.25,6.25,6.25c3.449,0,6.25-2.801,6.25-6.25
				C29.25,19.55,26.449,16.75,23,16.75z M23,26.906c-2.155,0-3.906-1.751-3.906-3.906s1.751-3.906,3.906-3.906
				c2.154,0,3.906,1.751,3.906,3.906S25.154,26.906,23,26.906z"/>
		</g>
	</g>
	<g>
		<g>
			<path fill="#FFFFFF" d="M29.721,15.449c0.459,0,0.83,0.372,0.83,0.83c0,0.464-0.371,0.833-0.83,0.833
				c-0.464,0-0.834-0.37-0.834-0.833C28.887,15.821,29.257,15.449,29.721,15.449z"/>
		</g>
	</g>
</g>
</svg>
