<?xml version="1.0" encoding="utf-8"?>
<!-- Generator: Adobe Illustrator 16.0.0, SVG Export Plug-In . SVG Version: 6.00 Build 0)  -->
<!DOCTYPE svg PUBLIC "-//W3C//DTD SVG 1.1//EN" "http://www.w3.org/Graphics/SVG/1.1/DTD/svg11.dtd">
<svg version="1.1" id="Calque_1" xmlns="http://www.w3.org/2000/svg" xmlns:xlink="http://www.w3.org/1999/xlink" x="0px" y="0px"
	 width="45px" height="45px" viewBox="0 0 45 45" enable-background="new 0 0 45 45" xml:space="preserve">
<g>
	<path fill="#252525" d="M45,39c0,3.313-2.687,6-6,6H6c-3.313,0-6-2.687-6-6V6c0-3.313,2.687-6,6-6h33c3.313,0,6,2.687,6,6V39z"/>
</g>
<g>
	<g>
		<path id="LinkedIn" fill="#FFFFFF" d="M37.044,23.882v9.674h-5.604v-9.026c0-2.266-0.814-3.812-2.843-3.812
			c-1.551,0-2.471,1.04-2.878,2.052c-0.148,0.357-0.187,0.861-0.187,1.367v9.419h-5.607c0,0,0.077-15.286,0-16.868h5.607v2.391
			c-0.012,0.018-0.024,0.038-0.036,0.056h0.036v-0.056c0.745-1.148,2.075-2.789,5.054-2.789
			C34.278,16.289,37.044,18.702,37.044,23.882z M14.058,8.556c-1.919,0-3.174,1.259-3.174,2.912c0,1.622,1.22,2.916,3.101,2.916
			h0.037c1.953,0,3.172-1.294,3.172-2.916C17.156,9.814,15.975,8.556,14.058,8.556z M11.214,33.556h5.609V16.688h-5.609V33.556z"/>
	</g>
</g>
</svg>
