<svg xmlns="http://www.w3.org/2000/svg" width="206.728" height="49.5"><path fill="#0cc" d="M16.56 31.41c-.18-.27-1.26-1.8-1.7-1.8-.495 0-.45.99-.45 1.26-.135 4.005 1.845 2.655 1.845 4.77 0 1.26-.315 3.104-7.334 3.104-3.7 0-7.875.135-7.875-2.835 0-2.16 2.385-.585 2.52-4.365l.36-9.404v-6.435c0-3.645-3.465-1.215-3.465-3.78 0-3.015 10.17-5.22 12.554-5.22 1.215 0 1.305.72 1.26 1.7l-.225 9.54c-.1 2.88-.1 4.004 1 4.004.72 0 3.6-1.53 3.6-2.205 0-.63-.9-1-.9-1.9 0-2.34 4.6-2.475 6.165-2.475 1.845 0 6.75.045 6.75 2.834 0 2.025-1.665 1.08-4.365 2.745-.45.225-2.205 1.125-2.205 1.665 0 1.125 5.265 7.604 6.12 8.64 2.025 2.52 4.5 2.475 4.5 4.365 0 1.395-1.035 2.61-4.5 2.61H23.85c-1.8 0-2.025-.1-3.105-1.484L16.56 31.41z"/><path d="M37.845 25.696c0-2.88-.585-3.7-1.035-4.095-.585-.495-1.215-.45-1.215-1.62 0-3.33 11.16-4.6 11.25-4.6 1.125 0 1.215 1 1.215 1.935 0 .54-.18 2.07.765 2.07.45 0 1.17-1 2.43-2.025a8.89 8.89 0 0 1 5.715-1.98c5.355 0 5.4 4.005 6.345 4.005.36 0 1.17-1 2.475-2.025 1.35-1 3.15-1.98 5.445-1.98 4.275 0 6.93 2.34 6.93 6.75v9.494c0 2.6 1.665 2.836 1.665 4.14 0 2.834-5.13 2.97-6.885 2.97-1.485 0-6.705-.315-6.705-2.655 0-1.664 1.575-1.62 1.575-4.23V27.8c0-1.9.225-5.67-2.34-5.67-2.52 0-2.295 3.06-2.295 4.725v2.8c0 5.534 1.62 4.6 1.62 6.255 0 2.8-5.4 2.835-7.02 2.835-6.794 0-7.155-1.26-7.1-2.52.045-2.385 2.295-.494 2.16-5.85V27.81c0-1.62.225-5.67-2.34-5.67-2.52 0-2.295 3.06-2.295 4.725v3.645c0 4.14 1.215 3.87 1.215 5.5 0 1.17-1.035 2.745-7.2 2.745-1.755 0-7.064.045-7.064-2.34 0-2.024 2.7-.945 2.7-6.57v-4.142zm54.36 2.204c-.495 0-1.215-.135-1.215.63 0 2.25 2.925 4.14 5.04 4.14 3.375 0 5.04-2.024 5.984-2.024s1.755 1.395 1.755 2.25c0 3.465-6.345 5.985-10.395 5.985-8.1 0-12.284-5.85-12.284-11.654 0-6.93 5.895-11.97 12.645-11.97 7.65 0 11.024 5.895 11.024 9.27 0 2.97-1.35 3.375-2.8 3.375h-9.764zm3.915-5.67c0-1.62-1-2.88-2.655-2.88-1.485 0-2.7 1.53-2.7 2.97 0 1.62 1.53 1.26 2.7 1.26 1.215 0 2.655.27 2.655-1.35zm23.355 7.966c0 .8-.045 2.295.18 3.015.494 1.62 2.52.854 2.52 2.745 0 3.015-5.5 2.8-7.425 2.8-2.025 0-8.325.225-8.325-2.97 0-1.575 1.935-1 2.475-2.655.585-1.845.585-7.47.585-9.674 0-1.755.1-5.13-.315-7.155-.675-3.33-3.33-2.16-3.33-4.725 0-3.915 11.7-4.86 12.33-4.86 1.53 0 1.9 1 1.9 2.34 0 1.035-.585 5.984-.585 12.42v8.73zm19.754 1.214c-.18-.27-1.26-1.8-1.7-1.8-.494 0-.45 1-.45 1.26-.135 4.005 1.844 2.655 1.844 4.77 0 1.26-.314 3.104-7.334 3.104-3.7 0-7.875.135-7.875-2.835 0-2.16 2.385-.585 2.52-4.365l.36-9.404v-6.435c0-3.645-3.465-1.215-3.465-3.78 0-3.015 10.17-5.22 12.554-5.22 1.215 0 1.306.72 1.26 1.7l-.226 9.54c-.1 2.88-.1 4.004 1 4.004.72 0 3.6-1.53 3.6-2.205 0-.63-.9-1-.9-1.9 0-2.34 4.6-2.475 6.164-2.475 1.845 0 6.75.045 6.75 2.834 0 2.025-1.665 1.08-4.365 2.745-.45.225-2.205 1.125-2.205 1.665 0 1.125 5.266 7.604 6.12 8.64 2.024 2.52 4.5 2.475 4.5 4.365 0 1.395-1.034 2.6-4.5 2.6h-6.345c-1.8 0-2.025-.1-3.105-1.484l-4.186-5.354zm30.014-3.5c-.494 0-1.215-.135-1.215.63 0 2.25 2.926 4.14 5.04 4.14 3.374 0 5.04-2.024 5.984-2.024s1.754 1.395 1.754 2.25c0 3.465-6.344 5.985-10.395 5.985-8.1 0-12.283-5.85-12.283-11.654 0-6.93 5.895-11.97 12.645-11.97 7.648 0 11.023 5.895 11.023 9.27 0 2.97-1.35 3.375-2.8 3.375h-9.765zm3.916-5.67c0-1.62-1-2.88-2.655-2.88-1.485 0-2.7 1.53-2.7 2.97 0 1.62 1.53 1.26 2.7 1.26 1.215 0 2.655.27 2.655-1.35zm25.424 7.696c-.27.54-1 1.754-1 2.34 0 .944.855 1.125 1.62 1.125 3.7 0 2.97-3.87 4.95-3.87 1.62 0 2.25 1.53 2.25 2.97 0 3.5-3.06 6.48-4.5 6.48-.9 0-.9-.72-4.096-.72h-10.98c-1.125 0-3.645 0-3.645-1.7 0-1 .944-2.114 1.44-2.925l5.445-8.775c.36-.585 1.754-2.7 1.754-3.42 0-.945-1.305-.945-1.98-.945-3.24 0-2.7 3.78-5.085 3.78-1.395 0-2.025-1.35-2.025-2.565 0-3.104 2.565-6.66 3.96-6.66 1.215 0 1.484.8 8.954.8h4.995c.675-.045 3.33-.135 3.824.135a1.46 1.46 0 0 1 .766 1.305c0 .855-.676 2.025-1.08 2.745l-5.58 9.9z"/></svg>