<?xml version="1.0" encoding="utf-8"?>
<!-- Generator: Adobe Illustrator 16.0.0, SVG Export Plug-In . SVG Version: 6.00 Build 0)  -->
<!DOCTYPE svg PUBLIC "-//W3C//DTD SVG 1.1//EN" "http://www.w3.org/Graphics/SVG/1.1/DTD/svg11.dtd">
<svg version="1.1" id="Calque_1" xmlns="http://www.w3.org/2000/svg" xmlns:xlink="http://www.w3.org/1999/xlink" x="0px" y="0px"
	 width="45px" height="45px" viewBox="0 0 45 45" enable-background="new 0 0 45 45" xml:space="preserve">
<g>
	<path fill="#252525" d="M45,39c0,3.313-2.687,6-6,6H6c-3.313,0-6-2.687-6-6V6c0-3.313,2.687-6,6-6h33c3.313,0,6,2.687,6,6V39z"/>
</g>
<g>
	<g>
		<path id="Twitter__x28_alt_x29_" fill="#FFFFFF" d="M33.914,20.209c1.686-0.169,2.83-1.096,3.271-2.353
			c-0.608,0.451-2.497,0.945-3.54,0.475c-0.049-0.295-0.108-0.577-0.162-0.831c-0.795-3.527-3.514-6.367-6.365-6.023
			c0.23-0.114,0.465-0.218,0.699-0.313c0.312-0.135,2.154-0.498,1.862-1.282c-0.245-0.691-2.492,0.522-2.915,0.681
			c0.559-0.255,1.484-0.692,1.582-1.468c-0.854,0.142-1.696,0.63-2.344,1.343c0.232-0.305,0.411-0.677,0.449-1.077
			c-2.284,1.765-3.619,5.319-4.697,8.771c-0.848-0.994-1.6-1.776-2.271-2.209c-1.893-1.228-4.152-2.506-7.703-4.101
			c-0.109,1.421,0.582,3.31,2.567,4.565c-0.431-0.072-1.216,0.085-1.847,0.267c0.256,1.627,1.096,2.967,3.36,3.615
			c-1.035,0.082-1.569,0.367-2.055,0.981c0.471,1.133,1.624,2.463,3.694,2.191c-2.303,1.2-0.939,3.422,0.934,3.092
			c-3.197,3.992-8.236,3.699-11.131,0.358c7.555,12.451,23.984,7.363,26.431-4.63c1.835,0.021,2.914-0.769,3.583-1.636
			C36.258,20.843,34.728,20.618,33.914,20.209z"/>
	</g>
</g>
</svg>
